<?xml version="1.0" standalone="no"?>
<!DOCTYPE svg PUBLIC "-//W3C//DTD SVG 20010904//EN"
 "http://www.w3.org/TR/2001/REC-SVG-20010904/DTD/svg10.dtd">
<svg version="1.0" xmlns="http://www.w3.org/2000/svg"
 width="500.000000pt" height="465.000000pt" viewBox="0 0 500.000000 465.000000"
 preserveAspectRatio="xMidYMid meet">

<g transform="translate(0.000000,465.000000) scale(0.100000,-0.100000)"
fill="#000000" stroke="none">
<path d="M3195 3514 c-331 -99 -330 -99 -250 -169 54 -47 55 -42 -14 -123
l-44 -53 46 -47 47 -47 63 63 63 63 40 -50 c41 -52 78 -67 88 -33 10 35 85
348 88 368 3 23 -18 55 -36 53 -6 -1 -47 -12 -91 -25z"/>
<path d="M1685 3143 c-29 -8 -64 -33 -78 -57 -9 -15 -13 -144 -17 -466 l-5
-445 -45 -5 -45 -5 -3 -64 c-2 -35 2 -77 9 -93 16 -39 71 -85 118 -98 27 -7
275 -10 768 -8 l728 3 37 23 c49 31 78 80 85 145 8 76 -6 97 -62 97 l-45 0 0
374 c0 327 -2 377 -16 390 -8 9 -21 16 -28 16 -34 0 -36 -19 -36 -402 l0 -378
-690 0 -690 0 0 428 c0 403 1 430 18 445 17 15 65 17 481 17 300 0 469 4 482
10 11 6 19 21 19 35 0 14 -8 29 -19 35 -20 10 -925 13 -966 3z m865 -1092 c5
-11 7 -27 4 -35 -6 -14 -30 -16 -197 -14 -164 3 -191 5 -200 20 -8 12 -7 21 2
32 11 14 42 16 197 16 171 0 184 -1 194 -19z"/>
<path d="M2817 3089 c-10 -6 -22 -22 -28 -36 -20 -53 37 -92 92 -63 22 12 27
71 7 88 -22 17 -52 22 -71 11z"/>
<path d="M2672 2958 c-13 -13 -16 -57 -4 -75 4 -6 19 -14 33 -18 33 -8 59 16
59 54 0 34 -17 51 -50 51 -14 0 -31 -5 -38 -12z"/>
<path d="M2401 2827 c-6 -8 -34 -105 -61 -216 -53 -212 -54 -231 -9 -231 25 0
30 13 86 241 38 156 44 191 33 204 -15 19 -34 19 -49 2z"/>
<path d="M2072 2727 c-56 -57 -102 -111 -102 -121 0 -27 188 -216 216 -216 51
0 54 50 6 93 -15 13 -49 47 -77 75 l-49 52 77 78 c45 45 77 86 77 98 0 22 -18
44 -35 44 -6 0 -56 -46 -113 -103z"/>
<path d="M2532 2808 c-22 -22 -12 -40 68 -122 l80 -82 -80 -79 c-81 -80 -95
-110 -65 -135 8 -6 22 -9 33 -6 29 10 212 201 212 222 0 26 -189 214 -216 214
-11 0 -25 -5 -32 -12z"/>
</g>
</svg>
